HIERARCHY
ROOT Hips
{
 OFFSET 0.000000 0.000000 0.000000
 CHANNELS 6 Xposition Yposition Zposition Yrotation Xrotation Zrotation
 JOINT Chest
 {
  OFFSET 0.000000 9.585900 0.002600
  CHANNELS 3 Yrotation Xrotation Zrotation
  JOINT Chest2
  {
   OFFSET 0.000000 9.601200 -0.005300
   CHANNELS 3 Yrotation Xrotation Zrotation
   JOINT Chest3
   {
    OFFSET 0.000000 9.561800 0.000000
    CHANNELS 3 Yrotation Xrotation Zrotation
    JOINT Chest4
    {
     OFFSET 0.000000 9.552100 0.000000
     CHANNELS 3 Yrotation Xrotation Zrotation
     JOINT Neck
     {
      OFFSET 0.000000 14.453000 0.000000
      CHANNELS 3 Yrotation Xrotation Zrotation
      JOINT Head
      {
       OFFSET 0.000000 8.936500 -0.011300
       CHANNELS 3 Yrotation Xrotation Zrotation
       End Site
       {
        OFFSET 0.000000 17.073600 -0.006000
       }
      }
     }
     JOINT RightCollar
     {
      OFFSET -2.921100 9.558500 0.000000
      CHANNELS 3 Yrotation Xrotation Zrotation
      JOINT RightShoulder
      {
       OFFSET -13.519700 0.000000 0.000000
       CHANNELS 3 Yrotation Xrotation Zrotation
       JOINT RightElbow
       {
        OFFSET 0.000000 -29.696600 0.000000
        CHANNELS 3 Yrotation Xrotation Zrotation
        JOINT RightWrist
        {
         OFFSET 0.000000 -24.004700 0.000000
         CHANNELS 3 Yrotation Xrotation Zrotation
         End Site
         {
          OFFSET 0.000000 -17.728500 0.000000
         }
        }
       }
      }
     }
     JOINT LeftCollar
     {
      OFFSET 2.921100 9.558500 0.000000
      CHANNELS 3 Yrotation Xrotation Zrotation
      JOINT LeftShoulder
      {
       OFFSET 13.519700 0.000000 0.000000
       CHANNELS 3 Yrotation Xrotation Zrotation
       JOINT LeftElbow
       {
        OFFSET 0.000000 -29.696600 0.000000
        CHANNELS 3 Yrotation Xrotation Zrotation
        JOINT LeftWrist
        {
         OFFSET 0.000000 -24.004700 0.000000
         CHANNELS 3 Yrotation Xrotation Zrotation
         End Site
         {
          OFFSET 0.000000 -17.728500 0.000000
         }
        }
       }
      }
     }
    }
   }
  }
 }
 JOINT RightHip
 {
  OFFSET -7.771700 -0.012900 -0.001300
  CHANNELS 3 Yrotation Xrotation Zrotation
  JOINT RightKnee
  {
   OFFSET 0.000000 -40.869800 0.001200
   CHANNELS 3 Yrotation Xrotation Zrotation
   JOINT RightAnkle
   {
    OFFSET 0.000000 -39.717900 0.002100
    CHANNELS 3 Yrotation Xrotation Zrotation
    JOINT RightToe
    {
     OFFSET 0.000000 -4.965400 11.033500
     CHANNELS 3 Yrotation Xrotation Zrotation
     End Site
     {
      OFFSET 0.000000 -1.423100 5.872300
     }
    }
   }
  }
 }
 JOINT LeftHip
 {
  OFFSET 7.771700 -0.012900 -0.001300
  CHANNELS 3 Yrotation Xrotation Zrotation
  JOINT LeftKnee
  {
   OFFSET 0.000000 -40.869800 0.001200
   CHANNELS 3 Yrotation Xrotation Zrotation
   JOINT LeftAnkle
   {
    OFFSET 0.000000 -39.717900 0.002100
    CHANNELS 3 Yrotation Xrotation Zrotation
    JOINT LeftToe
    {
     OFFSET 0.000000 -4.965400 11.033500
     CHANNELS 3 Yrotation Xrotation Zrotation
     End Site
     {
      OFFSET 0.000000 -1.423100 5.872300
     }
    }
   }
  }
 }
}
MOTION
Frames: 12
Frame Time: 0.008333
0.000000 85.388000 0.000000 0.000000 -5.767877 0.000000 0.000000 11.653817 0.000000 0.000000 -5.885947 0.000000 0.000000 -0.000000 0.000000 0.000000 -0.000000 0.000000 0.000000 12.528835 0.000000 0.000000 0.711642 0.000000 0.000000 -0.000000 0.000000 0.000000 0.000000 -90.000000 0.000000 -2.309062 0.000000 0.000000 2.309062 0.000000 0.000000 -0.000000 0.000000 0.000000 -0.000000 90.000000 0.000000 -2.309062 0.000000 0.000000 2.309062 0.000000 0.000000 8.520406 0.000000 0.000000 1.905762 0.000000 -0.000000 -4.658285 0.000000 0.000000 -0.000000 0.000000 0.000000 8.520406 0.000000 0.000000 1.905762 0.000000 -0.000000 -4.658285 0.000000 0.000000 -0.000000 0.000000
-261.017099 60.235056 -80.560182 158.382457 -28.334241 3.601102 3.747923 17.311567 1.680336 0.360972 1.874151 0.152304 0.620315 3.140353 0.242945 3.156400 15.148005 1.567106 0.604057 15.460877 -2.292912 1.155402 -9.481617 -2.544620 3.052783 6.570575 -3.957852 2.115982 -20.472803 -6.651673 -48.861928 -77.165936 59.882505 -1.999605 0.435022 -41.466957 -7.304242 1.944797 -4.707379 16.783534 -11.317287 -1.786068 12.560035 -82.321730 -24.704405 -5.669927 7.047011 11.625748 0.846890 -41.759342 5.190172 -28.444640 68.093139 -28.146476 -1.164961 -3.532719 -1.162754 0.033595 -0.167097 0.028052 13.456942 -40.687612 -1.381737 25.403294 61.729665 24.863407 -15.468572 -13.988244 2.031602 0.058263 0.258593 0.013008
-261.013771 60.234962 -80.559706 158.392307 -28.363949 3.569862 3.731398 17.314175 1.715582 0.370231 1.894220 0.145633 0.617145 3.138237 0.248107 3.139915 15.153548 1.575095 0.611377 15.484293 -2.308610 1.156187 -9.432286 -2.552135 3.079945 6.561781 -3.979815 2.102097 -20.468147 -6.651156 -48.887879 -77.161470 59.929924 -1.996730 0.438499 -41.452630 -7.280338 1.939606 -4.721252 16.801716 -11.312873 -1.795158 12.556852 -82.321573 -24.722683 -5.681764 7.039900 11.606685 0.810794 -41.731714 5.232051 -28.452456 68.090830 -28.160914 -1.161786 -3.522005 -1.158954 0.028458 -0.178380 0.024460 13.447919 -40.670786 -1.349784 25.356261 61.759291 24.834258 -15.405557 -14.082784 2.058418 0.051437 0.303522 -0.003339
-261.012262 60.234243 -80.558545 158.396066 -28.387455 3.548211 3.726699 17.324851 1.738365 0.371142 1.900526 0.146297 0.610319 3.135752 0.252504 3.139806 15.160099 1.572587 0.615513 15.494279 -2.314406 1.146798 -9.337567 -2.551287 3.093931 6.556567 -3.987824 2.100078 -20.464491 -6.654522 -48.909397 -77.162214 59.967768 -1.996754 0.443939 -41.443594 -7.267020 1.932296 -4.722001 16.814855 -11.304740 -1.804462 12.539996 -82.328107 -24.720941 -5.702119 7.033871 11.565328 0.787025 -41.709243 5.261220 -28.456388 68.088818 -28.165619 -1.158387 -3.518376 -1.163549 0.023872 -0.182743 0.024732 13.442046 -40.654112 -1.329325 25.336775 61.772929 24.825865 -15.330024 -14.154673 2.080232 0.065513 0.327188 -0.013008
-261.013079 60.233180 -80.557288 158.397145 -28.406200 3.538765 3.725668 17.338717 1.748893 0.358812 1.875710 0.150357 0.606664 3.141661 0.254832 3.146266 15.181220 1.569995 0.608022 15.545006 -2.314949 1.144319 -9.254753 -2.554238 3.107879 6.552273 -3.994449 2.096207 -20.457834 -6.655525 -48.914377 -77.170262 59.992655 -2.003089 0.449478 -41.452754 -7.254211 1.922915 -4.723070 16.822821 -11.294603 -1.811935 12.458399 -82.326614 -24.650824 -5.701423 7.032017 11.556414 0.772850 -41.692187 5.278683 -28.473179 68.082790 -28.190804 -1.147756 -3.515178 -1.158315 0.015413 -0.184581 0.021120 13.449396 -40.638337 -1.322931 25.314583 61.785656 24.816013 -15.294291 -14.225956 2.097806 0.084448 0.378935 -0.020813
-261.015575 60.233440 -80.558822 158.399776 -28.439519 3.542500 3.715410 17.356691 1.745214 0.357195 1.877405 0.152313 0.604583 3.144521 0.255691 3.118581 15.184582 1.579499 0.602928 15.690226 -2.320102 1.158035 -9.238802 -2.569026 3.163755 6.531937 -4.016930 2.091860 -20.433369 -6.659626 -48.897355 -77.176504 59.978980 -2.012516 0.454163 -41.464662 -7.219892 1.922307 -4.743556 16.825784 -11.290794 -1.817008 12.404771 -82.323506 -24.600884 -5.704653 7.032673 11.544374 0.744395 -41.656197 5.290976 -28.464515 68.081191 -28.201706 -1.151335 -3.522129 -1.163328 0.020475 -0.181972 0.022303 13.459779 -40.605919 -1.323945 25.269460 61.810884 24.786273 -15.317471 -14.291972 2.109303 0.053130 0.332835 -0.011253
-261.017240 60.234532 -80.561423 158.398183 -28.481776 3.544662 3.708218 17.382266 1.746826 0.359898 1.887648 0.151953 0.602018 3.143789 0.257259 3.106051 15.189202 1.583824 0.601819 15.773346 -2.318461 1.156688 -9.150753 -2.567643 3.190386 6.521936 -4.030145 2.106357 -20.424314 -6.674702 -48.899861 -77.178026 59.977086 -2.001905 0.458935 -41.454386 -7.202262 1.916683 -4.754453 16.824281 -11.284833 -1.818470 12.359272 -82.322111 -24.554876 -5.726556 7.049825 11.479669 0.735614 -41.613015 5.293992 -28.467196 68.082046 -28.208733 -1.152879 -3.526833 -1.168450 0.023047 -0.182896 0.023122 13.463958 -40.566020 -1.315010 25.250894 61.834541 24.780733 -15.354200 -14.349659 2.116601 0.036148 0.323693 -0.010550
-261.018811 60.234829 -80.562002 158.400697 -28.512611 3.538855 3.699387 17.385672 1.760883 0.363104 1.909049 0.144997 0.602538 3.147387 0.256400 3.091007 15.188838 1.592771 0.600382 15.859431 -2.314531 1.154491 -9.059514 -2.563719 3.215039 6.515084 -4.045383 2.124371 -20.418187 -6.689789 -48.886124 -77.181343 59.954537 -2.000720 0.462787 -41.452564 -7.186996 1.901607 -4.769727 16.820282 -11.272528 -1.815953 12.298188 -82.318809 -24.491053 -5.731460 7.062530 11.450231 0.718292 -41.581328 5.303932 -28.476873 68.079701 -28.221146 -1.146747 -3.533309 -1.175113 0.024511 -0.179252 0.026249 13.455079 -40.537782 -1.301192 25.249861 61.844193 24.779735 -15.348470 -14.385773 2.128837 0.020309 0.327506 -0.017336
-261.021075 60.235215 -80.562189 158.403815 -28.541715 3.535020 3.694431 17.407471 1.767548 0.358723 1.897664 0.151445 0.602350 3.155983 0.254420 3.078121 15.197340 1.595297 0.605448 15.903500 -2.318514 1.143697 -8.924260 -2.541197 3.234088 6.513529 -4.059885 2.200187 -20.427788 -6.738841 -48.907045 -77.164069 59.921759 -2.001316 0.465362 -41.452562 -7.173938 1.886712 -4.786297 16.820122 -11.262262 -1.815074 12.173650 -82.301129 -24.346033 -5.739674 7.062580 11.409641 0.679130 -41.547757 5.317146 -28.447365 68.077720 -28.208022 -1.131341 -3.537139 -1.177902 0.017953 -0.176328 0.022712 13.446583 -40.510138 -1.290149 25.254522 61.845519 24.784496 -15.354006 -14.400400 2.133003 0.081657 0.316831 -0.004577
-261.024469 60.235473 -80.561463 158.404922 -28.566048 3.535963 3.689712 17.424896 1.769925 0.358000 1.898586 0.151689 0.594890 3.149232 0.260840 3.072524 15.210657 1.592215 0.598275 16.013015 -2.299203 1.140737 -8.851415 -2.533564 3.249288 6.509863 -4.070869 2.217291 -20.426649 -6.751436 -48.892114 -77.169645 59.908317 -2.007878 0.467804 -41.460259 -7.153268 1.858050 -4.802246 16.807720 -11.246461 -1.805267 12.081230 -82.287066 -24.234682 -5.747536 7.068650 11.379781 0.667326 -41.521553 5.315661 -28.430545 68.074265 -28.194799 -1.126437 -3.535993 -1.180061 0.016442 -0.176338 0.019395 13.441416 -40.480508 -1.278445 25.253813 61.835477 24.772477 -15.378279 -14.401199 2.139588 0.043106 0.284041 -0.003922
-261.027403 60.235246 -80.558573 158.410079 -28.582889 3.527504 3.680838 17.417782 1.779701 0.356680 1.902576 0.152448 0.597522 3.164917 0.258404 3.067668 15.215687 1.593915 0.588566 16.125022 -2.272913 1.133212 -8.778328 -2.518755 3.259570 6.498916 -4.072116 2.234739 -20.419257 -6.770557 -48.891262 -77.170868 59.908856 -2.017592 0.469111 -41.475152 -7.144611 1.852125 -4.807893 16.805040 -11.248447 -1.805651 12.007443 -82.279991 -24.144586 -5.747044 7.068321 11.359650 0.650192 -41.503184 5.321330 -28.411420 68.068562 -28.176405 -1.119659 -3.529599 -1.181761 0.012935 -0.178034 0.015745 13.424739 -40.463092 -1.263911 25.279886 61.815241 24.785148 -15.379568 -14.382742 2.139788 0.059137 0.234916 0.007958
-261.034888 60.232931 -80.551686 158.444305 -28.570978 3.521922 3.647145 17.399234 1.767785 0.356593 1.903598 0.152619 0.595571 3.163929 0.259048 3.066759 15.222225 1.594987 0.581344 16.215693 -2.247100 1.118870 -8.685184 -2.491651 3.266374 6.490283 -4.075392 2.259374 -20.418245 -6.794881 -48.915183 -77.157916 59.926684 -2.015832 0.467895 -41.477938 -7.139574 1.847193 -4.809523 16.807232 -11.251814 -1.807053 11.928059 -82.274769 -24.050059 -5.753633 7.083349 11.323420 0.627972 -41.516131 5.301898 -28.392619 68.062236 -28.155535 -1.120729 -3.525150 -1.184567 0.013043 -0.175816 0.013595 13.405839 -40.471257 -1.280264 25.332378 61.760438 24.806367 -15.417061 -14.319655 2.143541 0.051073 0.208752 0.015336
